# xmcd
#
# Track frame offsets:
#	150
#	18722
#	47126
#	70711
#	94279
#	116984
#	137966
#	161836
#	192286
#	214001
#	234316
#	254986
#	281294
#	301454
#
# Disc length: 4196
#
# Revision: 2
# Processed by: cddbd v1.5.1PL0 Copyright (c) Steve Scherf et al.
# Submitted via: Media_Universe 3.0
# Normalized: r1:DSETVAR2,TDELIM( - )
#
DISCID=d810620e
DTITLE=Various Artist - Jazz Notes vol. 3
DYEAR=2003
DGENRE=Jazz
TTITLE0=Count Basie - Joy and Pain
TTITLE1=Jerald Daemyon - Summer Madness
TTITLE2=Everette Harp - Inner City Blues
TTITLE3=Kirk Whalum - Ascension
TTITLE4=Kirk Whalum - All I Do
TTITLE5=Bobbi Humphrey - Smiling Faces Sometimes
TTITLE6=kirk Whalum - Anytime
TTITLE7=Fourplay - Between the sheets
TTITLE8=Najee - All the things..
TTITLE9=Miles Davis - Human Nature
TTITLE10=Kim Waters - Fortunate
TTITLE11=Norman Brown - Your Body's Calling
TTITLE12=Peter White - The Closer I get to you
TTITLE13=Peter White - My Cherie Amore
EXTD=YEAR: 2003
EXTT0=
EXTT1=
EXTT2=
EXTT3=
EXTT4=
EXTT5=
EXTT6=
EXTT7=
EXTT8=
EXTT9=
EXTT10=
EXTT11=
EXTT12=
EXTT13=
PLAYORDER=
